<svg width="120" height="120" viewBox="0 0 120 120" fill="none" xmlns="http://www.w3.org/2000/svg">
<g clip-path="url(#clip0_405_10)">
<path d="M101.651 21.139C93.8836 17.5047 85.5779 14.8634 76.8945 13.3594C75.8281 15.2874 74.5822 17.8807 73.7232 19.9436C64.4925 18.5555 55.3467 18.5555 46.2858 19.9436C45.427 17.8807 44.1528 15.2874 43.0768 13.3594C34.384 14.8634 26.0688 17.5144 18.301 21.1583C2.63321 44.8343 -1.61406 67.9223 0.509583 90.6824C10.9013 98.4426 20.972 103.157 30.8729 106.242C33.3174 102.877 35.4977 99.3006 37.3759 95.5314C33.7988 94.1721 30.3726 92.4948 27.1354 90.5475C27.9942 89.9112 28.8343 89.246 29.6459 88.5615C49.391 97.7968 70.8445 97.7968 90.3537 88.5615C91.1748 89.246 92.0148 89.9112 92.8642 90.5475C89.6174 92.5043 86.1819 94.1817 82.6048 95.5411C84.483 99.3006 86.6538 102.887 89.1078 106.251C99.0182 103.166 109.098 98.4523 119.49 90.6824C121.982 64.2976 115.233 41.4217 101.651 21.139ZM40.0659 76.6851C34.1386 76.6851 29.2778 71.1516 29.2778 64.4132C29.2778 57.6748 34.0348 52.1318 40.0659 52.1318C46.0971 52.1318 50.9578 57.6651 50.854 64.4132C50.8634 71.1516 46.0971 76.6851 40.0659 76.6851ZM79.9337 76.6851C74.0064 76.6851 69.1456 71.1516 69.1456 64.4132C69.1456 57.6748 73.9025 52.1318 79.9337 52.1318C85.9648 52.1318 90.8256 57.6651 90.7218 64.4132C90.7218 71.1516 85.9648 76.6851 79.9337 76.6851Z" fill="#222224"/>
</g>
<defs>
<clipPath id="clip0_405_10">
<rect width="120" height="120" fill="white"/>
</clipPath>
</defs>
</svg>
